<?xml version="1.0" encoding="UTF-8"?>
<svg width="2000px" height="1000px" viewBox="0 0 2000 1000" version="1.1" xmlns="http://www.w3.org/2000/svg" xmlns:xlink="http://www.w3.org/1999/xlink">
    <title>icon_action_gift</title>
    <g id="icon_action_gift" stroke="none" stroke-width="1" fill="none" fill-rule="evenodd">
        <rect id="Rectangle" x="0" y="0" width="2000" height="1000"></rect>
        <g id="Action/Gift" transform="translate(600.000000, 100.000000)">
            <g id="🎨-Icon-Style" transform="translate(100.000000, 106.177419)">
                <path d="M37.5,281.322581 C45.4339325,281.322581 50,287.873384 50,293.822581 L50,519.864247 C50,532.492891 60.0245921,543.822581 73.5899877,543.822581 L262.5,543.822581 C269.403559,543.822581 275.000317,549.419021 275.000317,556.322581 C275.000317,562.733029 269.756162,568.822581 262.5,568.822581 L73.5899877,568.822581 C46.4990559,568.822581 25,546.760695 25,519.864247 L25,293.822581 C25,286.919021 30.5964406,281.322581 37.5,281.322581 Z M562.500317,281.322581 C568.910765,281.322581 574.194156,286.148083 574.91622,292.364817 L575.000317,519.864247 C575.000317,545.920181 554.823956,567.438992 528.933236,568.758472 L337.500317,568.822581 C330.244154,568.822581 325,562.733029 325,556.322581 C325,549.912133 329.825775,544.628741 336.042548,543.906677 L526.410329,543.822581 C539.329753,543.822581 549.037564,533.546219 549.932822,521.65842 L550.000317,293.822581 C550.000317,287.873384 554.566384,281.322581 562.500317,281.322581 Z M543.269231,118.822581 C574.649888,118.822581 598.597733,142.891961 599.940564,172.450685 L600,231.322581 C600,250.742448 582.528711,267.578974 564.504147,268.756813 L337.5,268.822581 C330.29058,268.822581 325,262.733029 325,256.322581 C325,249.912133 329.825502,244.628741 336.042236,243.906677 L562.5,243.822581 C568.03712,243.822581 574.069078,237.525343 574.902536,232.464973 L575,175.072581 C575,157.300329 561.518595,144.850801 545.308877,143.883274 L56.7307692,143.822581 C39.6282612,143.822581 25,156.559819 25,175.072581 L25,231.322581 C25,236.148083 30.63645,242.789999 36.2160104,243.714225 L262.5,243.822581 C269.403559,243.822581 275,249.419021 275,256.322581 C275,262.27514 270.438225,267.951007 264.014277,268.731476 L37.5,268.822581 C18.7894249,268.822581 0,251.461702 0,231.322581 L0,175.072581 C0,145.207027 23.0512544,120.284345 53.981563,118.884572 L300,118.822581 L543.269231,118.822581 Z" id="Base" fill="#282D37" fill-rule="nonzero"></path>
                <path d="M441.10421,23.5732528 C462.42215,50.8589715 456.769203,90.6480578 428.809638,112.492464 C404.430527,131.539512 351.691258,142.639353 312.4968,142.623203 L312.5,568.822581 C312.5,575.72614 306.903559,581.322581 300,581.322581 C293.589552,581.322581 288.30616,576.497078 287.584097,570.280345 L287.513171,142.622784 C248.284291,142.703475 195.310293,131.594585 170.860692,112.492464 C142.901127,90.6480578 137.24818,50.8589715 158.56612,23.5732528 C179.88406,-3.71246589 219.858812,-7.85328644 247.818377,13.9911198 C267.979746,29.7429079 287.738897,59.8430164 299.840023,94.5039439 C311.931432,59.8430164 331.690584,29.7429079 351.851953,13.9911198 C379.811518,-7.85328644 419.78627,-3.71246589 441.10421,23.5732528 Z M367.24349,33.6913887 C347.175405,49.370295 325.564814,88.4372683 317.958128,118.822581 C350.794488,117.501098 390.73943,108.637268 411.165878,94.4489123 C431.592326,80.260557 434.088046,55.1997032 421.403941,38.9647897 C408.719837,22.7298762 384.486532,20.2196476 367.24349,33.6913887 Z M178.266389,38.9647897 C165.582284,55.1997032 168.078003,80.260557 188.504452,94.4489123 C208.9309,108.637268 248.875842,117.501098 281.712201,118.822581 C274.105516,88.4372683 252.494925,49.370295 232.42684,33.6913887 C215.183798,20.2196476 190.950493,22.7298762 178.266389,38.9647897 Z" id="Pulse" fill="#EC0016"></path>
            </g>
        </g>
    </g>
</svg>